<mxfile host="app.diagrams.net" modified="2024-05-02T20:46:33.441Z" agent="Mozilla/5.0 (Windows NT 10.0; Win64; x64) AppleWebKit/537.36 (KHTML, like Gecko) Chrome/124.0.0.0 Safari/537.36" etag="QNUW0690fXWbXOA__CG1" version="24.3.1" type="device">
  <diagram name="Page-1" id="7O8iDJKPFUrkFsLHT1QO">
    <mxGraphModel dx="1224" dy="1814" grid="1" gridSize="10" guides="1" tooltips="1" connect="1" arrows="1" fold="1" page="1" pageScale="1" pageWidth="850" pageHeight="1100" math="0" shadow="0">
      <root>
        <mxCell id="0" />
        <mxCell id="1" parent="0" />
        <mxCell id="x6oOMN9hwFiUHXJnqk8G-3" value="Yes" style="edgeStyle=orthogonalEdgeStyle;rounded=0;orthogonalLoop=1;jettySize=auto;html=1;exitX=1;exitY=0.5;exitDx=0;exitDy=0;entryX=0;entryY=0.5;entryDx=0;entryDy=0;" edge="1" parent="1" source="x6oOMN9hwFiUHXJnqk8G-1" target="x6oOMN9hwFiUHXJnqk8G-20">
          <mxGeometry x="-0.2" y="10" relative="1" as="geometry">
            <mxPoint x="350" y="-280" as="targetPoint" />
            <mxPoint as="offset" />
          </mxGeometry>
        </mxCell>
        <mxCell id="x6oOMN9hwFiUHXJnqk8G-5" value="No" style="edgeStyle=orthogonalEdgeStyle;rounded=0;orthogonalLoop=1;jettySize=auto;html=1;exitX=0.5;exitY=1;exitDx=0;exitDy=0;entryX=0.5;entryY=0;entryDx=0;entryDy=0;" edge="1" parent="1" source="x6oOMN9hwFiUHXJnqk8G-1" target="x6oOMN9hwFiUHXJnqk8G-4">
          <mxGeometry y="10" relative="1" as="geometry">
            <mxPoint as="offset" />
          </mxGeometry>
        </mxCell>
        <mxCell id="x6oOMN9hwFiUHXJnqk8G-1" value="Already&lt;div&gt;Excess?&lt;/div&gt;" style="rhombus;whiteSpace=wrap;html=1;" vertex="1" parent="1">
          <mxGeometry x="220" y="-320" width="80" height="80" as="geometry" />
        </mxCell>
        <mxCell id="x6oOMN9hwFiUHXJnqk8G-4" value="Enough Gas?" style="rhombus;whiteSpace=wrap;html=1;" vertex="1" parent="1">
          <mxGeometry x="220" y="-210" width="80" height="80" as="geometry" />
        </mxCell>
        <mxCell id="x6oOMN9hwFiUHXJnqk8G-6" value="Yes" style="edgeStyle=orthogonalEdgeStyle;rounded=0;orthogonalLoop=1;jettySize=auto;html=1;exitX=1;exitY=0.5;exitDx=0;exitDy=0;entryX=0;entryY=0.5;entryDx=0;entryDy=0;" edge="1" target="x6oOMN9hwFiUHXJnqk8G-7" parent="1">
          <mxGeometry x="-0.2" y="10" relative="1" as="geometry">
            <mxPoint x="300" y="-170" as="sourcePoint" />
            <mxPoint as="offset" />
          </mxGeometry>
        </mxCell>
        <mxCell id="x6oOMN9hwFiUHXJnqk8G-7" value="Gas -= need" style="rounded=1;whiteSpace=wrap;html=1;" vertex="1" parent="1">
          <mxGeometry x="350" y="-200" width="120" height="60" as="geometry" />
        </mxCell>
        <mxCell id="x6oOMN9hwFiUHXJnqk8G-8" value="Enough Gas + Molten?" style="rhombus;whiteSpace=wrap;html=1;" vertex="1" parent="1">
          <mxGeometry x="220" y="-100" width="80" height="80" as="geometry" />
        </mxCell>
        <mxCell id="x6oOMN9hwFiUHXJnqk8G-9" value="No" style="edgeStyle=orthogonalEdgeStyle;rounded=0;orthogonalLoop=1;jettySize=auto;html=1;exitX=0.5;exitY=1;exitDx=0;exitDy=0;entryX=0.5;entryY=0;entryDx=0;entryDy=0;" edge="1" parent="1" source="x6oOMN9hwFiUHXJnqk8G-4" target="x6oOMN9hwFiUHXJnqk8G-8">
          <mxGeometry y="10" relative="1" as="geometry">
            <mxPoint x="270" y="-230" as="sourcePoint" />
            <mxPoint x="270" y="-200" as="targetPoint" />
            <Array as="points">
              <mxPoint x="260" y="-120" />
              <mxPoint x="260" y="-120" />
            </Array>
            <mxPoint as="offset" />
          </mxGeometry>
        </mxCell>
        <mxCell id="x6oOMN9hwFiUHXJnqk8G-10" value="Yes" style="edgeStyle=orthogonalEdgeStyle;rounded=0;orthogonalLoop=1;jettySize=auto;html=1;exitX=1;exitY=0.5;exitDx=0;exitDy=0;entryX=0;entryY=0.5;entryDx=0;entryDy=0;" edge="1" target="x6oOMN9hwFiUHXJnqk8G-11" parent="1">
          <mxGeometry x="-0.208" y="10" relative="1" as="geometry">
            <mxPoint x="300" y="-60" as="sourcePoint" />
            <mxPoint as="offset" />
          </mxGeometry>
        </mxCell>
        <mxCell id="x6oOMN9hwFiUHXJnqk8G-40" style="edgeStyle=orthogonalEdgeStyle;rounded=0;orthogonalLoop=1;jettySize=auto;html=1;exitX=1;exitY=0.5;exitDx=0;exitDy=0;" edge="1" parent="1" source="x6oOMN9hwFiUHXJnqk8G-11">
          <mxGeometry relative="1" as="geometry">
            <mxPoint x="510" y="-60" as="targetPoint" />
          </mxGeometry>
        </mxCell>
        <mxCell id="x6oOMN9hwFiUHXJnqk8G-11" value="Gas = GasMax&lt;div&gt;Molten = need -&amp;nbsp; GasMax&lt;/div&gt;" style="rounded=1;whiteSpace=wrap;html=1;" vertex="1" parent="1">
          <mxGeometry x="350" y="-90" width="120" height="60" as="geometry" />
        </mxCell>
        <mxCell id="x6oOMN9hwFiUHXJnqk8G-12" value="No" style="edgeStyle=orthogonalEdgeStyle;rounded=0;orthogonalLoop=1;jettySize=auto;html=1;exitX=0.5;exitY=1;exitDx=0;exitDy=0;entryX=0.5;entryY=0;entryDx=0;entryDy=0;" edge="1" target="x6oOMN9hwFiUHXJnqk8G-13" parent="1">
          <mxGeometry y="10" relative="1" as="geometry">
            <mxPoint x="260" y="-20" as="sourcePoint" />
            <mxPoint x="270" y="-90" as="targetPoint" />
            <Array as="points">
              <mxPoint x="260" />
              <mxPoint x="260" />
            </Array>
            <mxPoint as="offset" />
          </mxGeometry>
        </mxCell>
        <mxCell id="x6oOMN9hwFiUHXJnqk8G-13" value="Enough Gas + Molten + Battery" style="rhombus;whiteSpace=wrap;html=1;" vertex="1" parent="1">
          <mxGeometry x="220" y="10" width="80" height="80" as="geometry" />
        </mxCell>
        <mxCell id="x6oOMN9hwFiUHXJnqk8G-14" value="Yes" style="edgeStyle=orthogonalEdgeStyle;rounded=0;orthogonalLoop=1;jettySize=auto;html=1;exitX=1;exitY=0.5;exitDx=0;exitDy=0;entryX=0;entryY=0.5;entryDx=0;entryDy=0;" edge="1" target="x6oOMN9hwFiUHXJnqk8G-15" parent="1">
          <mxGeometry x="-0.208" y="10" relative="1" as="geometry">
            <mxPoint x="300" y="50" as="sourcePoint" />
            <mxPoint as="offset" />
          </mxGeometry>
        </mxCell>
        <mxCell id="x6oOMN9hwFiUHXJnqk8G-41" style="edgeStyle=orthogonalEdgeStyle;rounded=0;orthogonalLoop=1;jettySize=auto;html=1;exitX=1;exitY=0.5;exitDx=0;exitDy=0;" edge="1" parent="1" source="x6oOMN9hwFiUHXJnqk8G-15">
          <mxGeometry relative="1" as="geometry">
            <mxPoint x="510" y="50" as="targetPoint" />
          </mxGeometry>
        </mxCell>
        <mxCell id="x6oOMN9hwFiUHXJnqk8G-15" value="Gas = GasMax&lt;div&gt;Molten = MoltenMax&lt;/div&gt;&lt;div&gt;Battery = need - GasMax - MoltenMax&lt;/div&gt;" style="rounded=1;whiteSpace=wrap;html=1;" vertex="1" parent="1">
          <mxGeometry x="350" y="20" width="120" height="60" as="geometry" />
        </mxCell>
        <mxCell id="x6oOMN9hwFiUHXJnqk8G-16" value="No" style="edgeStyle=orthogonalEdgeStyle;rounded=0;orthogonalLoop=1;jettySize=auto;html=1;exitX=0.5;exitY=1;exitDx=0;exitDy=0;entryX=0.5;entryY=0;entryDx=0;entryDy=0;" edge="1" parent="1">
          <mxGeometry y="10" relative="1" as="geometry">
            <mxPoint x="260" y="90" as="sourcePoint" />
            <mxPoint x="260" y="120" as="targetPoint" />
            <Array as="points">
              <mxPoint x="260" y="110" />
              <mxPoint x="260" y="110" />
            </Array>
            <mxPoint as="offset" />
          </mxGeometry>
        </mxCell>
        <mxCell id="x6oOMN9hwFiUHXJnqk8G-19" value="Gas = GasMax&lt;div&gt;Molten = MoltenMax&lt;/div&gt;&lt;div&gt;Battery = BatteryMax&lt;/div&gt;&lt;div&gt;Shortage = need - the rest&lt;/div&gt;" style="rounded=1;whiteSpace=wrap;html=1;" vertex="1" parent="1">
          <mxGeometry x="185" y="120" width="150" height="70" as="geometry" />
        </mxCell>
        <mxCell id="x6oOMN9hwFiUHXJnqk8G-20" value="Can Molten use all excess?" style="rhombus;whiteSpace=wrap;html=1;" vertex="1" parent="1">
          <mxGeometry x="559" y="-320" width="80" height="80" as="geometry" />
        </mxCell>
        <mxCell id="x6oOMN9hwFiUHXJnqk8G-21" value="Yes" style="edgeStyle=orthogonalEdgeStyle;rounded=0;orthogonalLoop=1;jettySize=auto;html=1;exitX=1;exitY=0.5;exitDx=0;exitDy=0;entryX=0;entryY=0.5;entryDx=0;entryDy=0;" edge="1" target="x6oOMN9hwFiUHXJnqk8G-22" parent="1">
          <mxGeometry x="-0.2" y="10" relative="1" as="geometry">
            <mxPoint x="639" y="-280" as="sourcePoint" />
            <mxPoint as="offset" />
          </mxGeometry>
        </mxCell>
        <mxCell id="x6oOMN9hwFiUHXJnqk8G-32" style="edgeStyle=orthogonalEdgeStyle;rounded=0;orthogonalLoop=1;jettySize=auto;html=1;exitX=1;exitY=0.5;exitDx=0;exitDy=0;entryX=0.904;entryY=-0.012;entryDx=0;entryDy=0;entryPerimeter=0;" edge="1" parent="1" source="x6oOMN9hwFiUHXJnqk8G-22" target="x6oOMN9hwFiUHXJnqk8G-36">
          <mxGeometry relative="1" as="geometry">
            <mxPoint x="850" y="120" as="targetPoint" />
            <Array as="points">
              <mxPoint x="850" y="-280" />
              <mxPoint x="850" y="120" />
            </Array>
          </mxGeometry>
        </mxCell>
        <mxCell id="x6oOMN9hwFiUHXJnqk8G-22" value="Molten += Excess" style="rounded=1;whiteSpace=wrap;html=1;" vertex="1" parent="1">
          <mxGeometry x="689" y="-310" width="120" height="60" as="geometry" />
        </mxCell>
        <mxCell id="x6oOMN9hwFiUHXJnqk8G-23" value="No" style="edgeStyle=orthogonalEdgeStyle;rounded=0;orthogonalLoop=1;jettySize=auto;html=1;exitX=0.5;exitY=1;exitDx=0;exitDy=0;entryX=0.5;entryY=0;entryDx=0;entryDy=0;" edge="1" parent="1" source="x6oOMN9hwFiUHXJnqk8G-20" target="x6oOMN9hwFiUHXJnqk8G-24">
          <mxGeometry y="10" relative="1" as="geometry">
            <mxPoint x="419" y="-120" as="sourcePoint" />
            <mxPoint x="599" y="-220" as="targetPoint" />
            <Array as="points" />
            <mxPoint as="offset" />
          </mxGeometry>
        </mxCell>
        <mxCell id="x6oOMN9hwFiUHXJnqk8G-24" value="Molten = MaxMolten&lt;div&gt;excess -= MoltenCharged&lt;/div&gt;" style="whiteSpace=wrap;html=1;" vertex="1" parent="1">
          <mxGeometry x="539" y="-200" width="120" height="60" as="geometry" />
        </mxCell>
        <mxCell id="x6oOMN9hwFiUHXJnqk8G-26" value="Can battery use rest of excess?" style="rhombus;whiteSpace=wrap;html=1;" vertex="1" parent="1">
          <mxGeometry x="559" y="-89" width="80" height="80" as="geometry" />
        </mxCell>
        <mxCell id="x6oOMN9hwFiUHXJnqk8G-27" value="Yes" style="edgeStyle=orthogonalEdgeStyle;rounded=0;orthogonalLoop=1;jettySize=auto;html=1;exitX=1;exitY=0.5;exitDx=0;exitDy=0;entryX=0;entryY=0.5;entryDx=0;entryDy=0;" edge="1" target="x6oOMN9hwFiUHXJnqk8G-28" parent="1">
          <mxGeometry x="-0.2" y="10" relative="1" as="geometry">
            <mxPoint x="639" y="-49" as="sourcePoint" />
            <mxPoint as="offset" />
          </mxGeometry>
        </mxCell>
        <mxCell id="x6oOMN9hwFiUHXJnqk8G-34" style="edgeStyle=orthogonalEdgeStyle;rounded=0;orthogonalLoop=1;jettySize=auto;html=1;exitX=1;exitY=0.5;exitDx=0;exitDy=0;" edge="1" parent="1" source="x6oOMN9hwFiUHXJnqk8G-28">
          <mxGeometry relative="1" as="geometry">
            <mxPoint x="850" y="-49" as="targetPoint" />
          </mxGeometry>
        </mxCell>
        <mxCell id="x6oOMN9hwFiUHXJnqk8G-28" value="Battery += Excess" style="rounded=1;whiteSpace=wrap;html=1;" vertex="1" parent="1">
          <mxGeometry x="689" y="-79" width="120" height="60" as="geometry" />
        </mxCell>
        <mxCell id="x6oOMN9hwFiUHXJnqk8G-29" value="No" style="edgeStyle=orthogonalEdgeStyle;rounded=0;orthogonalLoop=1;jettySize=auto;html=1;exitX=0.5;exitY=1;exitDx=0;exitDy=0;entryX=0.5;entryY=0;entryDx=0;entryDy=0;" edge="1" source="x6oOMN9hwFiUHXJnqk8G-26" target="x6oOMN9hwFiUHXJnqk8G-30" parent="1">
          <mxGeometry y="10" relative="1" as="geometry">
            <mxPoint x="419" y="111" as="sourcePoint" />
            <mxPoint x="599" y="11" as="targetPoint" />
            <Array as="points" />
            <mxPoint as="offset" />
          </mxGeometry>
        </mxCell>
        <mxCell id="x6oOMN9hwFiUHXJnqk8G-42" style="edgeStyle=orthogonalEdgeStyle;rounded=0;orthogonalLoop=1;jettySize=auto;html=1;exitX=0.5;exitY=1;exitDx=0;exitDy=0;entryX=0.556;entryY=0.014;entryDx=0;entryDy=0;entryPerimeter=0;" edge="1" parent="1" source="x6oOMN9hwFiUHXJnqk8G-30" target="x6oOMN9hwFiUHXJnqk8G-36">
          <mxGeometry relative="1" as="geometry">
            <mxPoint x="600" y="220" as="targetPoint" />
          </mxGeometry>
        </mxCell>
        <mxCell id="x6oOMN9hwFiUHXJnqk8G-30" value="Battery = MaxBattery&lt;div&gt;Excess -= BatteryCharged&lt;/div&gt;" style="whiteSpace=wrap;html=1;" vertex="1" parent="1">
          <mxGeometry x="539" y="20" width="120" height="60" as="geometry" />
        </mxCell>
        <mxCell id="x6oOMN9hwFiUHXJnqk8G-31" value="No" style="edgeStyle=orthogonalEdgeStyle;rounded=0;orthogonalLoop=1;jettySize=auto;html=1;exitX=0.5;exitY=1;exitDx=0;exitDy=0;entryX=0.5;entryY=0;entryDx=0;entryDy=0;" edge="1" parent="1" source="x6oOMN9hwFiUHXJnqk8G-24">
          <mxGeometry y="10" relative="1" as="geometry">
            <mxPoint x="598.5" y="-120" as="sourcePoint" />
            <mxPoint x="598.5" y="-90" as="targetPoint" />
            <Array as="points">
              <mxPoint x="599" y="-110" />
            </Array>
            <mxPoint as="offset" />
          </mxGeometry>
        </mxCell>
        <mxCell id="x6oOMN9hwFiUHXJnqk8G-36" value="&lt;font style=&quot;font-size: 24px;&quot;&gt;Done&lt;/font&gt;" style="shape=hexagon;perimeter=hexagonPerimeter2;whiteSpace=wrap;html=1;fixedSize=1;" vertex="1" parent="1">
          <mxGeometry x="200" y="230" width="720" height="80" as="geometry" />
        </mxCell>
        <mxCell id="x6oOMN9hwFiUHXJnqk8G-38" style="edgeStyle=orthogonalEdgeStyle;rounded=0;orthogonalLoop=1;jettySize=auto;html=1;exitX=0.5;exitY=1;exitDx=0;exitDy=0;entryX=0.083;entryY=-0.002;entryDx=0;entryDy=0;entryPerimeter=0;" edge="1" parent="1" source="x6oOMN9hwFiUHXJnqk8G-19" target="x6oOMN9hwFiUHXJnqk8G-36">
          <mxGeometry relative="1" as="geometry" />
        </mxCell>
        <mxCell id="x6oOMN9hwFiUHXJnqk8G-39" style="edgeStyle=orthogonalEdgeStyle;rounded=0;orthogonalLoop=1;jettySize=auto;html=1;exitX=1;exitY=0.5;exitDx=0;exitDy=0;entryX=0.428;entryY=0.013;entryDx=0;entryDy=0;entryPerimeter=0;" edge="1" parent="1" source="x6oOMN9hwFiUHXJnqk8G-7" target="x6oOMN9hwFiUHXJnqk8G-36">
          <mxGeometry relative="1" as="geometry" />
        </mxCell>
      </root>
    </mxGraphModel>
  </diagram>
</mxfile>
